<svg width="232" height="96" viewBox="0 0 232 96" fill="none" xmlns="http://www.w3.org/2000/svg">
<path fill-rule="evenodd" clip-rule="evenodd" d="M14.5716 82.111L14.6413 82.1921L16.1638 83.7146L16.5587 84.0332L16.5613 84.0353C16.914 84.3216 17.2975 84.6451 17.7028 84.9868C18.6831 85.8136 19.7908 86.7477 20.896 87.5229C36.4112 98.4023 57.2578 97.4103 71.5996 85.0831C78.487 79.1606 82.9424 71.7071 85.0181 62.8953C85.0734 62.6603 85.1293 62.3932 85.1753 62.1737C85.1938 62.0853 85.2107 62.0046 85.2253 61.9366L85.957 58.5363L72.4444 58.4896L71.8703 60.5643C69.8176 67.9827 65.5185 73.8316 58.9932 77.7747C48.497 84.1138 34.765 82.6967 25.7363 74.3679C21.6585 70.6035 18.706 65.8862 17.2785 60.5924L16.724 58.5361L14.5945 58.5075C13.8252 58.4971 13.0481 58.4975 12.2945 58.498C12.0344 58.4981 11.777 58.4983 11.5238 58.498L3.40338 58.489L4.11076 61.8867C5.46745 68.403 8.24954 74.4176 12.4373 79.6234L12.4379 79.6242C12.9188 80.2216 13.4593 80.8379 13.9484 81.3957L13.9491 81.3966C14.1706 81.6491 14.3815 81.8897 14.5716 82.111ZM11.5201 61.3172C11.7842 61.3175 12.0483 61.3174 12.3124 61.3172L12.3056 61.3172C12.0439 61.3173 11.7818 61.3175 11.5201 61.3172ZM69.762 82.9451C75.6845 77.8524 79.6693 71.5688 81.7776 64.1603C81.9566 63.5312 82.122 62.8941 82.274 62.2489C80.332 70.4933 76.1873 77.42 69.762 82.9451Z" fill="#FED670"/>
<path d="M14.3589 49.4897L13.3633 48.4922L14.3579 49.4906C12.979 50.8642 11.1667 51.7175 9.22947 51.9053C7.29224 52.0931 5.34979 51.6037 3.73276 50.5205C2.11572 49.4373 0.92403 47.8272 0.36052 45.9643C-0.202991 44.1013 -0.103496 42.1007 0.642074 40.3028C1.38764 38.505 2.73321 37.021 4.44974 36.1036C6.16627 35.1862 8.14769 34.892 10.0567 35.2711C11.9658 35.6501 13.6845 36.6791 14.9203 38.1827C16.1561 39.6863 16.8326 41.5718 16.8347 43.5181V43.5194C16.8349 44.6285 16.6163 45.7267 16.1914 46.7512C15.7666 47.7756 15.1438 48.7062 14.3589 49.4897Z" fill="#FED670"/>
<path d="M41.4353 16.6401C41.4353 13.9401 40.2953 12.2301 37.7153 11.1801C39.4253 10.2201 40.1753 8.78008 40.1753 6.59008C40.1753 2.78008 37.9853 0.830078 32.5853 0.830078H27.3953V23.0001H32.8853C39.0353 23.0001 41.4353 21.0201 41.4353 16.6401ZM39.1853 16.7601C39.1853 19.9701 37.1753 20.9901 32.6453 20.9901H29.6153V12.3801H32.2553C36.1853 12.3801 39.1853 12.6201 39.1853 16.7601ZM37.9253 6.62008C37.9253 9.41008 36.4853 10.3701 32.3153 10.3701H29.6153V2.84008H32.2853C36.7553 2.84008 37.9253 3.92008 37.9253 6.62008Z" fill="#5326EC"/>
<path d="M57.4918 23.0001V6.59008H55.2718V15.0201C55.2718 19.4901 53.1718 21.3501 50.1718 21.3501C46.9918 21.3501 45.2518 19.6101 45.2518 15.4401V6.59008H43.0318V15.4401C43.0318 21.1701 45.8218 23.3901 49.9918 23.3901C52.5418 23.3901 54.1618 22.4901 55.2718 20.4501V23.0001H57.4918Z" fill="#5326EC"/>
<path d="M62.3038 23.0001V6.59008H60.0838V23.0001H62.3038ZM62.3038 4.79008V1.01008H60.0838V4.79008H62.3038Z" fill="#5326EC"/>
<path d="M67.1096 23.0001V0.830078H64.8896V23.0001H67.1096Z" fill="#5326EC"/>
<path d="M86.4655 23.0001V0.830078H84.2455V9.20008C82.6255 7.25008 80.3755 6.20008 77.7955 6.20008C72.8455 6.20008 69.0655 9.92008 69.0655 14.8101C69.0655 19.6701 72.9355 23.3901 78.0055 23.3901C80.7355 23.3901 82.5955 22.4001 84.2455 20.0301V23.0001H86.4655ZM84.3355 14.7501C84.3355 18.3501 81.4555 21.3501 77.9455 21.3501C74.1955 21.3501 71.3155 18.4701 71.3155 14.7201C71.3155 11.1201 74.1655 8.24008 77.7355 8.24008C81.3655 8.24008 84.3355 11.1501 84.3355 14.7501Z" fill="#5326EC"/>
<path d="M91.2526 23.0001V6.59008H89.0326V23.0001H91.2526ZM91.2526 4.79008V1.01008H89.0326V4.79008H91.2526Z" fill="#5326EC"/>
<path d="M108.358 23.0001V14.3901C108.358 8.63008 105.448 6.20008 101.338 6.20008C99.1785 6.20008 97.4385 7.04008 96.0585 8.72008V6.59008H93.8385V23.0001H96.0585V13.9701C96.0585 9.95008 98.0985 8.24008 101.068 8.24008C104.098 8.24008 106.138 9.92008 106.138 14.3901V23.0001H108.358Z" fill="#5326EC"/>
<path d="M127.359 20.0601V6.59008H125.139V9.50008C123.489 7.25008 121.479 6.20008 118.719 6.20008C113.919 6.20008 110.319 9.92008 110.319 14.8701C110.319 19.6701 114.069 23.3901 118.869 23.3901C121.809 23.3901 123.849 22.1901 125.139 19.6701V20.7801C125.139 25.1001 123.069 27.4101 119.109 27.4101C116.349 27.4101 114.759 26.4801 113.079 23.5101H110.919C112.119 27.3501 115.029 29.4501 119.169 29.4501C122.019 29.4501 124.419 28.3701 125.829 26.5101C126.939 25.0101 127.359 23.2701 127.359 20.0601ZM125.139 14.6001C125.139 18.4401 122.439 21.3501 118.869 21.3501C115.269 21.3501 112.569 18.5001 112.569 14.6901C112.569 10.9401 115.209 8.24008 118.839 8.24008C122.379 8.24008 125.139 11.0301 125.139 14.6001Z" fill="#5326EC"/>
<path d="M144.975 8.60008V6.59008H141.285V0.830078H139.065V6.59008H135.525V8.60008H139.065V23.0001H141.285V8.60008H144.975Z" fill="#5326EC"/>
<path d="M160.541 23.0001V14.1801C160.541 8.69008 157.721 6.20008 153.461 6.20008C151.211 6.20008 149.351 7.10008 148.241 8.72008V0.830078H146.021V23.0001H148.241V14.0001C148.241 9.98008 150.401 8.24008 153.251 8.24008C156.251 8.24008 158.321 10.1001 158.321 14.1801V23.0001H160.541Z" fill="#5326EC"/>
<path d="M179.571 15.5301C179.571 9.71008 175.881 6.20008 171.021 6.20008C166.251 6.20008 162.501 9.95008 162.501 14.7201C162.501 19.5801 166.311 23.3901 171.171 23.3901C174.891 23.3901 178.101 20.7201 179.151 17.6001H176.841C175.911 19.8501 173.601 21.3501 171.111 21.3501C167.751 21.3501 164.901 18.7701 164.721 15.5301H179.571ZM177.351 13.5201H164.781C165.381 10.3701 167.871 8.24008 170.991 8.24008C174.171 8.24008 176.601 10.2501 177.351 13.5201Z" fill="#5326EC"/>
<path d="M38.4353 31.7601V27.8301H27.1553V50.0001H31.2653V40.9101H38.1053V36.9801H31.2653V31.7601H38.4353Z" fill="#5326EC"/>
<path d="M54.4464 50.0001V33.3801H50.4564V41.2101C50.4564 43.4301 50.2764 44.4501 49.8264 45.2001C49.2264 46.1601 48.1464 46.7301 46.7964 46.7301C44.8764 46.7301 43.6464 45.9201 43.6464 41.5101V33.3801H39.6564V42.2901C39.6564 48.1401 42.1164 50.3901 45.9864 50.3901C47.9964 50.3901 49.2564 49.8801 50.7564 48.4101V50.0001H54.4464Z" fill="#5326EC"/>
<path d="M63.4347 37.0101V33.3801H61.0346V27.8301H57.0446V33.3801H55.0946V37.0101H57.0446V50.0001H61.0346V37.0101H63.4347Z" fill="#5326EC"/>
<path d="M79.0288 50.0001V33.3801H75.0388V41.2101C75.0388 43.4301 74.8588 44.4501 74.4088 45.2001C73.8088 46.1601 72.7288 46.7301 71.3788 46.7301C69.4588 46.7301 68.2288 45.9201 68.2288 41.5101V33.3801H64.2388V42.2901C64.2388 48.1401 66.6988 50.3901 70.5688 50.3901C72.5788 50.3901 73.8388 49.8801 75.3388 48.4101V50.0001H79.0288Z" fill="#5326EC"/>
<path d="M88.5871 36.8301V32.9901H88.2871C86.5771 32.9901 85.7371 33.4701 84.6871 35.0001V33.3801H81.0271V50.0001H85.0171V40.7601C85.0171 38.1801 86.1871 36.8901 88.5871 36.8301Z" fill="#5326EC"/>
<path d="M105.471 41.9301C105.471 36.7701 101.841 32.9901 96.8905 32.9901C92.0005 32.9901 88.1305 36.8601 88.1305 41.7501C88.1305 46.6101 92.0605 50.3901 97.1305 50.3901C100.491 50.3901 103.941 48.5001 105.051 45.0801H100.701C99.6805 46.2801 98.6905 46.7301 97.0405 46.7301C94.6705 46.7301 92.9305 45.4701 92.4505 43.4601H105.321C105.441 42.8901 105.471 42.5301 105.471 41.9301ZM101.541 39.9501H92.3305C92.9605 37.8201 94.5805 36.6501 96.9505 36.6501C99.4105 36.6501 101.031 37.8201 101.541 39.9501Z" fill="#5326EC"/>
<path d="M130.998 41.8101C130.998 36.8601 127.128 32.9901 122.118 32.9901C117.288 32.9901 113.328 36.9201 113.328 41.6901C113.328 46.4901 117.288 50.3901 122.148 50.3901C126.978 50.3901 130.998 46.4901 130.998 41.8101ZM126.978 41.6901C126.978 44.4801 124.818 46.7301 122.178 46.7301C119.478 46.7301 117.348 44.4801 117.348 41.6301C117.348 38.9001 119.538 36.6501 122.148 36.6501C124.818 36.6501 126.978 38.9301 126.978 41.6901Z" fill="#5326EC"/>
<path d="M138.638 31.6701V27.8901C138.158 27.8301 137.918 27.8301 137.648 27.8301C134.768 27.8301 132.608 29.3001 132.158 33.6801H130.718V37.0101H132.158V50.0001H136.148V37.0101H138.398V33.6801H136.148C136.178 32.1801 136.688 31.6701 138.248 31.6701H138.638Z" fill="#5326EC"/>
<path d="M169.374 39.2301V38.6901H154.884V42.5301H164.064C162.864 44.9901 160.464 46.4301 157.554 46.4301C153.204 46.4301 149.874 43.1601 149.874 38.9301C149.874 34.7601 152.934 31.4001 157.314 31.4001C159.894 31.4001 162.024 32.4201 163.404 34.3401H168.234C166.794 30.3501 162.234 27.4401 157.404 27.4401C150.924 27.4401 145.734 32.5101 145.734 38.8701C145.734 45.3501 150.984 50.3901 157.794 50.3901C164.334 50.3901 169.374 45.2601 169.374 39.2301Z" fill="#5326EC"/>
<path d="M174.439 50.0001V33.3801H170.449V50.0001H174.439ZM174.469 30.9801V26.9901H170.479V30.9801H174.469Z" fill="#5326EC"/>
<path d="M191.426 33.3801H186.926L183.146 44.3901L179.306 33.3801H174.866L181.556 50.0001H184.736L191.426 33.3801Z" fill="#5326EC"/>
<path d="M196.033 50.0001V33.3801H192.043V50.0001H196.033ZM196.063 30.9801V26.9901H192.073V30.9801H196.063Z" fill="#5326EC"/>
<path d="M212.811 50.0001V41.0901C212.811 38.1201 212.51 36.6801 211.611 35.3901C210.531 33.8301 208.73 32.9901 206.421 32.9901C204.531 32.9901 203.211 33.5601 201.741 34.9701V33.3801H198.051V50.0001H202.041V42.1701C202.041 39.9501 202.191 38.9901 202.701 38.1801C203.331 37.1901 204.381 36.6501 205.641 36.6501C207.62 36.6501 208.821 37.4301 208.821 41.8701V50.0001H212.811Z" fill="#5326EC"/>
<path d="M231.549 46.8501V33.3801H227.739V35.4801C226.509 33.8001 224.709 32.9901 222.309 32.9901C217.599 32.9901 214.119 36.6501 214.119 41.5701C214.119 46.7001 217.539 50.3901 222.279 50.3901C224.619 50.3901 226.179 49.6401 227.739 47.8101C227.589 51.3801 226.059 53.1201 223.089 53.1201C221.229 53.1201 220.089 52.6401 218.919 51.3501H214.389C215.739 54.6801 218.859 56.6301 222.939 56.6301C228.099 56.6301 231.549 53.9901 231.549 46.8501ZM227.559 41.7501C227.559 44.7501 225.669 46.7301 222.819 46.7301C219.969 46.7301 218.139 44.7801 218.139 41.7501C218.139 38.6901 219.969 36.6501 222.759 36.6501C225.609 36.6501 227.559 38.7201 227.559 41.7501Z" fill="#5326EC"/>
<path d="M165.88 61C165.909 61.0062 165.939 61.0108 165.969 61.0138C167.848 61.1079 169.469 61.8137 170.839 63.1033C170.87 63.1347 170.904 63.166 170.929 63.1895L169.875 64.2449C169.831 64.2045 169.776 64.1546 169.722 64.1038C169.085 63.5129 168.328 63.0666 167.503 62.7954C167.145 62.6793 166.778 62.5961 166.406 62.5467C166.016 62.4981 165.622 62.486 165.23 62.5107C164.805 62.5351 164.384 62.6079 163.976 62.7277C163.627 62.8267 163.288 62.9575 162.963 63.1183C162.517 63.3353 162.101 63.6099 161.726 63.9351C161.581 64.0606 161.439 64.1923 161.303 64.3293C161.033 64.6047 160.792 64.9068 160.583 65.2307C160.382 65.539 160.209 65.8651 160.068 66.2049C159.887 66.6339 159.759 67.0833 159.686 67.5432C159.654 67.7381 159.633 67.9346 159.621 68.1317C159.606 68.3668 159.603 68.6025 159.612 68.8378C159.631 69.2452 159.694 69.6493 159.798 70.0434C160.114 71.2554 160.799 72.3389 161.758 73.1435C162.717 73.9481 163.902 74.4338 165.15 74.5332C165.44 74.5542 165.731 74.5563 166.021 74.5394C166.49 74.5117 166.955 74.4266 167.404 74.2861C167.713 74.1914 168.013 74.0715 168.302 73.9277C169.255 73.4539 170.066 72.7368 170.654 71.8489C170.984 71.3517 171.238 70.8078 171.406 70.2353C171.422 70.1833 171.438 70.1309 171.455 70.0654C171.256 70.0632 171.069 70.0654 170.882 70.0654H164.12L165.653 68.5318H173.144V68.6375C173.102 70.4702 172.49 72.0865 171.289 73.4715C170.218 74.7062 168.871 75.4964 167.279 75.8658C166.861 75.9595 166.436 76.0178 166.008 76.0401C165.65 76.061 165.291 76.0534 164.935 76.0172C163.293 75.8545 161.847 75.2333 160.617 74.1309C159.421 73.0601 158.652 71.7322 158.293 70.1673C158.19 69.7218 158.132 69.2672 158.119 68.8102C158.062 66.8164 158.679 65.058 159.99 63.5564C161.048 62.3429 162.376 61.5644 163.943 61.1947C164.326 61.1064 164.716 61.0479 165.108 61.0198C165.166 61.0154 165.224 61.0172 165.281 61.0138C165.311 61.0107 165.34 61.006 165.369 61H165.88Z" fill="#5326EC"/>
<path d="M212.153 76.0508H210.655V70.0698H206.14V76.037C206.081 76.0542 204.747 76.0593 204.644 76.0439V67.0581H206.136V68.5136C206.199 68.5306 210.508 68.5369 210.654 68.5209V64.0606C210.675 64.0566 210.695 64.0539 210.717 64.0524H212.115C212.128 64.0524 212.14 64.0546 212.152 64.0559L212.153 76.0508Z" fill="#5326EC"/>
<path d="M197.108 70.0612H191.126L189.597 68.5298H195.382C195.173 67.9354 194.842 67.3918 194.409 66.9345C193.715 66.2036 192.87 65.7461 191.878 65.5778C190.895 65.41 189.884 65.5721 189.003 66.0388C188.122 66.5055 187.42 67.2506 187.006 68.1582C186.592 69.0658 186.489 70.0849 186.714 71.0569C186.939 72.0289 187.478 72.8993 188.249 73.5325C189.143 74.2644 190.176 74.609 191.329 74.5563C192.482 74.5036 193.467 74.0574 194.292 73.2654L195.331 74.3051C193.848 75.8644 191.033 76.7154 188.429 75.4082C185.47 73.9188 184.278 70.3114 185.765 67.3499C186.379 66.1304 187.389 65.1565 188.63 64.5892C189.87 64.0218 191.267 63.8948 192.59 64.2292C195.629 65.0049 197.163 67.7444 197.108 70.0612Z" fill="#5326EC"/>
<path d="M179.179 73.0121L184.345 64.0561H186.057C186.059 64.0583 186.06 64.0606 186.062 64.063C186.062 64.0652 186.064 64.0684 186.062 64.0702C186.058 64.0796 186.054 64.0887 186.049 64.0975L179.157 76.0469H177.665V64.0693C177.667 64.0665 177.669 64.064 177.671 64.0618C177.673 64.0601 177.675 64.0589 177.677 64.0583C177.687 64.0557 177.697 64.054 177.707 64.0533H179.12C179.133 64.0545 179.145 64.0565 179.158 64.0593V73.0089L179.179 73.0121Z" fill="#5326EC"/>
<path d="M200.125 76.0462H198.625V65.5146C198.523 65.509 198.427 65.5127 198.33 65.5121C198.234 65.5115 198.13 65.5121 198.029 65.5121H196.849L196 64.055H206.133V65.5112H200.125V76.0462Z" fill="#5326EC"/>
<path d="M176.148 76.0473H174.658V67.0575H176.14L176.144 67.0612C176.144 67.0631 176.149 67.065 176.149 67.0669C176.15 70.0465 176.151 73.0261 176.152 76.0059C176.151 76.0178 176.149 76.0301 176.148 76.0473Z" fill="#5326EC"/>
<path d="M175.403 64.0524C175.6 64.0539 175.788 64.1335 175.927 64.2737C176.065 64.4139 176.143 64.6034 176.142 64.8006C176.141 64.9977 176.062 65.1866 175.923 65.3257C175.783 65.4649 175.594 65.543 175.397 65.543C175.2 65.543 175.011 65.4649 174.872 65.3257C174.732 65.1866 174.653 64.9977 174.652 64.8006C174.652 64.6034 174.729 64.4139 174.868 64.2737C175.006 64.1335 175.194 64.0539 175.391 64.0524H175.403Z" fill="#5326EC"/>
<path d="M217.822 76.0456H216.332V67.0558H217.814L217.818 67.0595C217.82 67.0614 217.823 67.0633 217.823 67.0652C217.824 70.0451 217.825 73.0248 217.826 76.0042C217.825 76.0161 217.823 76.0283 217.822 76.0456Z" fill="#5326EC"/>
<path d="M217.078 64.0516C217.275 64.0531 217.464 64.1327 217.602 64.273C217.741 64.4133 217.818 64.6028 217.817 64.8001C217.817 64.9973 217.738 65.1862 217.598 65.3254C217.458 65.4647 217.269 65.5428 217.072 65.5428C216.875 65.5428 216.686 65.4647 216.546 65.3254C216.407 65.1862 216.328 64.9973 216.327 64.8001C216.326 64.6028 216.404 64.4133 216.542 64.273C216.681 64.1327 216.869 64.0531 217.066 64.0516H217.078Z" fill="#5326EC"/>
<path d="M214.19 74.5494C214.387 74.5509 214.575 74.6304 214.714 74.7707C214.852 74.9109 214.93 75.1003 214.929 75.2975C214.928 75.4947 214.849 75.6835 214.71 75.8227C214.57 75.9618 214.381 76.04 214.184 76.04C213.987 76.04 213.798 75.9618 213.659 75.8227C213.519 75.6835 213.44 75.4947 213.439 75.2975C213.439 75.1003 213.516 74.9109 213.655 74.7707C213.793 74.6304 213.981 74.5509 214.178 74.5494H214.19Z" fill="#5326EC"/>
<path d="M225.389 64.0464C222.08 64.0464 219.397 66.7313 219.397 70.0434C219.397 73.3554 222.08 76.0404 225.389 76.0404C228.698 76.0404 231.381 73.3554 231.381 70.0434C231.381 66.7313 228.698 64.0464 225.389 64.0464ZM225.389 74.5504C224.5 74.5504 223.63 74.2865 222.891 73.7921C222.151 73.2976 221.575 72.5947 221.234 71.7724C220.894 70.95 220.805 70.0451 220.978 69.172C221.151 68.299 221.58 67.497 222.209 66.8675C222.837 66.238 223.639 65.8093 224.511 65.6355C225.383 65.4618 226.287 65.5508 227.109 65.8913C227.931 66.2319 228.633 66.8086 229.128 67.5487C229.622 68.2888 229.886 69.1589 229.886 70.049C229.886 70.6401 229.77 71.2254 229.544 71.7715C229.318 72.3177 228.987 72.8139 228.569 73.2319C228.152 73.6499 227.656 73.9815 227.11 74.2077C226.565 74.4339 225.98 74.5504 225.389 74.5504Z" fill="#5326EC"/>
</svg>
