<svg width="120" height="38" viewBox="0 0 120 38" fill="none" xmlns="http://www.w3.org/2000/svg">
<path d="M56.9644 9C57.0042 9.00831 57.0444 9.01452 57.0848 9.01859C59.6456 9.14537 61.8538 10.0966 63.7193 11.8347C63.762 11.877 63.8081 11.9192 63.8426 11.9509L62.406 13.3733C62.3467 13.3188 62.272 13.2516 62.1982 13.1832C61.3302 12.3867 60.2988 11.7852 59.1744 11.4197C58.6878 11.2633 58.1878 11.1511 57.6806 11.0846C57.1491 11.0189 56.6126 11.0026 56.078 11.036C55.4996 11.0691 54.9269 11.1672 54.3708 11.3284C53.8956 11.4621 53.4336 11.6384 52.9906 11.855C52.3828 12.1475 51.8163 12.5176 51.3056 12.9558C51.1084 13.127 50.9138 13.3024 50.7294 13.487C50.3619 13.8584 50.033 14.2654 49.7478 14.702C49.4741 15.1175 49.2394 15.557 49.0466 16.0149C48.8004 16.5932 48.6255 17.1988 48.5259 17.8185C48.4833 18.0813 48.4539 18.346 48.438 18.6117C48.4172 18.9285 48.4129 19.2462 48.4252 19.5634C48.4521 20.1123 48.5372 20.6569 48.6791 21.1882C48.8156 21.7038 49.0023 22.2051 49.2365 22.685C49.5523 23.3295 49.9527 23.9298 50.4273 24.4705C51.8357 26.0784 53.8265 27.073 55.9696 27.2392C56.3643 27.2675 56.7605 27.2703 57.1557 27.2477C57.7956 27.2104 58.4285 27.0957 59.0404 26.9062C59.4607 26.7788 59.8697 26.6173 60.2631 26.4232C61.5618 25.7849 62.6673 24.8184 63.4679 23.6215C63.9176 22.9516 64.2629 22.2185 64.4922 21.4469C64.5131 21.3767 64.5349 21.3061 64.5584 21.2178C64.2869 21.2149 64.0326 21.2178 63.7782 21.2178H54.5667L56.6542 19.1509H66.8588C66.8588 19.2012 66.8588 19.2473 66.8588 19.2934C66.8024 21.7634 65.9689 23.9418 64.333 25.8084C62.873 27.4725 61.039 28.5374 58.8701 29.0352C58.3007 29.1615 57.7217 29.2401 57.139 29.2702C56.6514 29.2983 56.1623 29.288 55.6764 29.2393C53.44 29.02 51.4708 28.1829 49.7948 26.6971C48.1653 25.2539 47.1175 23.4643 46.6288 21.3552C46.489 20.7547 46.4096 20.1421 46.3915 19.5262C46.3134 16.839 47.1546 14.4691 48.9399 12.4453C50.3816 10.8099 52.1908 9.76065 54.3247 9.26243C54.8472 9.14339 55.3781 9.06455 55.9128 9.02662C55.9909 9.02071 56.0699 9.02324 56.1484 9.01859C56.1885 9.01439 56.2284 9.00819 56.2679 9H56.9644Z" fill="#5326EC"/>
<path d="M120 29.2841H117.959V21.2233H111.809V29.2655C111.728 29.2888 109.911 29.2956 109.771 29.2748V17.1644H111.803V19.126C111.889 19.1488 117.759 19.1573 117.958 19.1357C117.958 18.4697 117.958 17.802 117.958 17.1344C117.958 16.4667 117.958 15.8024 117.958 15.1364V13.1244C117.986 13.1191 118.014 13.1154 118.043 13.1135C118.678 13.1135 119.313 13.1135 119.948 13.1135C119.965 13.1135 119.982 13.1164 119.999 13.1181L120 29.2841Z" fill="#5326EC"/>
<path d="M99.5041 21.2127H91.3554L89.2718 19.1488H97.1525C96.8688 18.3475 96.417 17.6148 95.8269 16.9987C94.882 16.0137 93.7309 15.3971 92.3788 15.1702C91.0401 14.9441 89.6635 15.1625 88.4632 15.7915C87.2629 16.4205 86.3063 17.4247 85.7423 18.6479C85.1783 19.8711 85.0385 21.2446 85.3447 22.5547C85.6509 23.8647 86.3859 25.0377 87.4353 25.8912C88.6538 26.8775 90.0605 27.3419 91.6311 27.2709C93.2017 27.1999 94.5435 26.5986 95.6677 25.5312L97.0825 26.9324C95.0634 29.034 91.2286 30.1809 87.6803 28.4191C85.8831 27.5239 84.4827 26.0035 83.7476 24.1493C83.0125 22.295 82.9945 20.2374 83.6968 18.3708C84.3992 16.5041 85.7726 14.9598 87.5538 14.0338C89.335 13.1078 91.3987 12.8652 93.3494 13.3526C97.4888 14.3981 99.5788 18.0903 99.5041 21.2127Z" fill="#5326EC"/>
<path d="M75.0801 25.1893L82.1183 13.1189H84.4503C84.4526 13.1219 84.4546 13.125 84.4563 13.1282C84.4563 13.1312 84.4593 13.1354 84.4563 13.138C84.4517 13.1506 84.4461 13.1629 84.4397 13.1747L75.0502 29.2795H73.0183V13.1367C73.0205 13.1331 73.0231 13.1297 73.026 13.1266C73.0284 13.1243 73.0313 13.1227 73.0345 13.1219C73.0476 13.1184 73.0611 13.1161 73.0746 13.1151H75.0003C75.0175 13.1167 75.0346 13.1194 75.0515 13.1232V25.1838L75.0801 25.1893Z" fill="#5326EC"/>
<path d="M103.614 29.2791H101.571V15.0853C101.432 15.0776 101.3 15.0827 101.168 15.0819C101.037 15.081 100.895 15.0819 100.758 15.0819H99.1508L97.9937 13.1181H111.798V15.0806H103.614V29.2791Z" fill="#5326EC"/>
<path d="M70.9508 29.2791H68.921V17.1631H70.941L70.9462 17.1682C70.9483 17.1707 70.9521 17.1733 70.9521 17.1758C70.9538 21.1918 70.9553 25.2076 70.9564 29.2233C70.956 29.2394 70.953 29.2558 70.9508 29.2791Z" fill="#5326EC"/>
<path d="M69.9372 13.1135C70.1383 13.1142 70.3347 13.1739 70.5016 13.285C70.6685 13.3961 70.7984 13.5537 70.875 13.7378C70.9516 13.922 70.9714 14.1244 70.9319 14.3197C70.8924 14.5149 70.7954 14.6943 70.6531 14.835C70.5109 14.9758 70.3297 15.0716 70.1325 15.1106C69.9352 15.1495 69.7308 15.1297 69.5449 15.0538C69.359 14.9778 69.1999 14.849 69.0879 14.6837C68.9758 14.5183 68.9156 14.3238 68.9151 14.1247C68.9141 13.9916 68.9399 13.8596 68.9909 13.7364C69.0419 13.6132 69.1172 13.5013 69.2123 13.4072C69.3075 13.3131 69.4205 13.2387 69.545 13.1882C69.6694 13.1378 69.8028 13.1124 69.9372 13.1135Z" fill="#5326EC"/>
<path d="M38.318 19.4691C38.2804 20.0031 38.2672 20.5406 38.2013 21.0707C37.5023 26.7001 34.8548 31.211 30.2073 34.5141C26.7356 36.9822 22.8173 38.1341 18.5495 37.9876C13.6143 37.8193 9.35942 35.9976 5.79162 32.6105C5.75879 32.5793 5.75959 32.4545 5.79162 32.4212C10.2416 28.001 14.6957 23.5852 19.1539 19.1739C19.2594 19.0782 19.3958 19.0229 19.5386 19.018C25.799 19.0103 32.0592 19.0081 38.3194 19.0114L38.318 19.4691Z" fill="#5326EC"/>
<path d="M19.6251 0C20.1514 0.0396475 20.6788 0.0627533 21.2033 0.118943C24.2744 0.449076 27.1028 1.45453 29.6886 3.1353C29.7061 3.14837 29.7229 3.1624 29.7389 3.17731L28.1043 4.79498C27.7485 5.14709 27.395 5.50155 27.035 5.84919C27.0122 5.86379 26.9862 5.87264 26.9592 5.87498C26.9322 5.87731 26.9051 5.87305 26.8801 5.86258C24.2769 4.37733 21.4747 3.69422 18.4737 3.81325C11.7593 4.08159 5.90591 8.79755 4.29595 15.2643C3.29943 19.2711 3.85382 23.0775 5.90591 26.6702C5.9255 26.7043 5.92656 26.7797 5.903 26.8015C5.0122 27.6914 4.1183 28.579 3.22132 29.4644C3.21259 29.4731 3.20173 29.4802 3.18135 29.4964C3.09689 29.3667 3.0119 29.2412 2.93195 29.1131C0.718887 25.5653 -0.258049 21.7092 0.0580651 17.547C0.717033 8.89469 7.21087 1.80619 15.8519 0.300901C16.7255 0.148875 17.6191 0.110278 18.5031 0.0191673L18.6836 0H19.6251Z" fill="#5326EC"/>
<path d="M29.3378 11.4698C29.3394 10.6797 29.6169 9.91444 30.1233 9.3044C30.6297 8.69437 31.3337 8.27723 32.1153 8.12398C32.8969 7.97073 33.7079 8.09085 34.4103 8.46388C35.1127 8.83692 35.663 9.43982 35.9676 10.17C36.2722 10.9001 36.3122 11.7124 36.0809 12.4685C35.8496 13.2246 35.3612 13.8779 34.6989 14.3171C34.0366 14.7564 33.2412 14.9544 32.4483 14.8775C31.6553 14.8006 30.9137 14.4535 30.3497 13.8954C30.0285 13.577 29.7738 13.1988 29.6002 12.7826C29.4265 12.3664 29.3374 11.9203 29.3378 11.4698Z" fill="#5326EC"/>
</svg>
